<mxfile host="app.diagrams.net" modified="2022-11-08T03:49:51.428Z" agent="5.0 (Macintosh; Intel Mac OS X 10_15_7) AppleWebKit/537.36 (KHTML, like Gecko) Chrome/104.0.0.0 Safari/537.36" etag="cKO6mITNI2O3oCd_Ye3o" version="20.5.3" type="github">
  <diagram id="Us0A_DBp2rmASndP8YAK" name="第 1 页">
    <mxGraphModel dx="4318" dy="689" grid="1" gridSize="20" guides="1" tooltips="1" connect="1" arrows="1" fold="1" page="1" pageScale="1" pageWidth="3300" pageHeight="4681" math="0" shadow="0">
      <root>
        <mxCell id="0" />
        <mxCell id="1" parent="0" />
        <mxCell id="flLwKG0AW8hCcdrRi5Zy-3" value="&lt;meta charset=&quot;utf-8&quot;&gt;&lt;div style=&quot;color: rgb(0, 0, 0); font-family: &amp;quot;JetBrains Mono&amp;quot;, &amp;quot;HarmonyOS Sans SC&amp;quot;, Menlo, Monaco, &amp;quot;Courier New&amp;quot;, monospace; font-weight: normal; font-size: 14px; line-height: 21px;&quot;&gt;&lt;div&gt;&lt;span style=&quot;color: #000000;&quot;&gt;1d_activate_uv  &lt;/span&gt;&lt;/div&gt;&lt;/div&gt;" style="text;whiteSpace=wrap;html=1;fillColor=#DAE8FC;strokeColor=#6c8ebf;labelBackgroundColor=#DAE8FC;labelPosition=center;verticalLabelPosition=middle;align=center;verticalAlign=middle;" vertex="1" parent="1">
          <mxGeometry x="-2000" y="180" width="150" height="40" as="geometry" />
        </mxCell>
        <mxCell id="flLwKG0AW8hCcdrRi5Zy-4" value="&lt;div style=&quot;text-align: left; font-size: 14px;&quot;&gt;&lt;span style=&quot;background-color: initial; font-size: 14px;&quot;&gt;这个指标是由&amp;nbsp;app.app_t08_kkug_channel_activate_xdevice_wide_ds&lt;/span&gt;&lt;/div&gt;&lt;div style=&quot;text-align: left; font-size: 14px;&quot;&gt;&lt;span style=&quot;background-color: initial; font-size: 14px;&quot;&gt;count(1) 来得到&lt;/span&gt;&lt;/div&gt;" style="text;html=1;strokeColor=none;fillColor=none;align=center;verticalAlign=middle;rounded=0;whiteSpace=wrap;fontSize=14;" vertex="1" parent="1">
          <mxGeometry x="-1990" y="240" width="130" height="170" as="geometry" />
        </mxCell>
        <mxCell id="flLwKG0AW8hCcdrRi5Zy-5" value="&lt;meta charset=&quot;utf-8&quot;&gt;&lt;div style=&quot;color: rgb(0, 0, 0); font-family: &amp;quot;JetBrains Mono&amp;quot;, &amp;quot;HarmonyOS Sans SC&amp;quot;, Menlo, Monaco, &amp;quot;Courier New&amp;quot;, monospace; font-weight: normal; font-size: 14px; line-height: 21px;&quot;&gt;&lt;div&gt;&lt;span style=&quot;color: #000000;&quot;&gt;activate_pay_type=&lt;/span&gt;&lt;span style=&quot;color: #a31515;&quot;&gt;&#39;免费&#39;&lt;/span&gt;&lt;/div&gt;&lt;/div&gt;" style="text;whiteSpace=wrap;html=1;fontSize=14;align=center;verticalAlign=middle;labelBackgroundColor=#DAE8FC;fillColor=#dae8fc;strokeColor=#6c8ebf;" vertex="1" parent="1">
          <mxGeometry x="-2380" y="180" width="220" height="60" as="geometry" />
        </mxCell>
        <mxCell id="flLwKG0AW8hCcdrRi5Zy-6" value="&lt;meta charset=&quot;utf-8&quot;&gt;&lt;div style=&quot;color: rgb(0, 0, 0); font-family: &amp;quot;JetBrains Mono&amp;quot;, &amp;quot;HarmonyOS Sans SC&amp;quot;, Menlo, Monaco, &amp;quot;Courier New&amp;quot;, monospace; font-weight: normal; font-size: 14px; line-height: 21px;&quot;&gt;&lt;div&gt;&lt;span style=&quot;color: #000000;&quot;&gt;activate_type_lifecycle regexp &lt;/span&gt;&lt;span style=&quot;color: #a31515;&quot;&gt;&#39;新增&#39;&lt;/span&gt;&lt;/div&gt;&lt;/div&gt;" style="text;whiteSpace=wrap;html=1;fontSize=14;fillColor=#dae8fc;strokeColor=#6c8ebf;verticalAlign=middle;align=center;labelBackgroundColor=#DAE8FC;" vertex="1" parent="1">
          <mxGeometry x="-1560" y="200" width="360" height="60" as="geometry" />
        </mxCell>
        <mxCell id="flLwKG0AW8hCcdrRi5Zy-7" value="&lt;div style=&quot;text-align: left; font-size: 14px;&quot;&gt;有额外逻辑，可以先认为主要是下表 activate_type_lifecycle 字段&amp;nbsp;&lt;/div&gt;&lt;div style=&quot;text-align: left; font-size: 14px;&quot;&gt;&lt;span style=&quot;background-color: initial; font-size: 14px;&quot;&gt;app.app_t08_kkug_channel_activate_xdevice_wide_ds&lt;/span&gt;&lt;/div&gt;&lt;div style=&quot;text-align: left; font-size: 14px;&quot;&gt;&lt;br&gt;&lt;/div&gt;" style="text;html=1;strokeColor=none;fillColor=none;align=center;verticalAlign=middle;rounded=0;whiteSpace=wrap;fontSize=14;" vertex="1" parent="1">
          <mxGeometry x="-1500" y="280" width="210" height="170" as="geometry" />
        </mxCell>
      </root>
    </mxGraphModel>
  </diagram>
</mxfile>
